<svg height="512pt" viewBox="-9 0 512 512.00024" width="512pt" xmlns="http://www.w3.org/2000/svg"><path d="m287.855469 25.546875 28.570312 57.894531c14.300781 28.972656 41.941407 49.054688 73.914063 53.699219l63.894531 9.285156c37.585937 5.460938 52.59375 51.652344 25.398437 78.167969l-46.234374 45.066406c-23.136719 22.550782-33.695313 55.042969-28.234376 86.886719l10.914063 63.632813c6.421875 37.4375-32.871094 65.984374-66.492187 48.3125l-57.144532-30.046876c-28.597656-15.035156-62.765625-15.035156-91.363281 0l-57.144531 30.046876c-33.621094 17.671874-72.914063-10.875-66.492188-48.3125l10.914063-63.632813c5.460937-31.84375-5.097657-64.335937-28.234375-86.886719l-46.230469-45.066406c-27.199219-26.515625-12.191406-72.707031 25.394531-78.167969l63.894532-9.285156c31.972656-4.644531 59.613281-24.726563 73.910156-53.699219l28.574218-57.894531c16.8125-34.0625 65.378907-34.0625 82.191407 0zm0 0" fill="#f9ee80"/><path d="m292.441406 438.445312 57.144532 30.046876c33.621093 17.671874 72.914062-10.875 66.492187-48.3125l-10.914063-63.632813c-5.460937-31.84375 5.097657-64.335937 28.234376-86.886719 0 0-128.402344-88.835937-215.585938 23.675782-48.835938 63.015624-33.949219 106.449218-39.425781 157.039062l22.691406-11.929688c28.597656-15.035156 62.765625-15.035156 91.363281 0zm0 0" fill="#eedb00"/><path d="m485.371094 397.835938c0 63.050781-51.113282 114.164062-114.164063 114.164062s-114.167969-51.113281-114.167969-114.164062c0-63.054688 51.117188-114.167969 114.167969-114.167969s114.164063 51.113281 114.164063 114.167969zm0 0" fill="#5ad6ff"/><path d="m416.167969 376.589844h-23.714844v-23.71875c0-11.734375-9.511719-21.246094-21.246094-21.246094s-21.246093 9.511719-21.246093 21.246094v23.71875h-23.71875c-11.734376 0-21.246094 9.511718-21.246094 21.246094 0 11.730468 9.511718 21.242187 21.246094 21.242187h23.71875v23.71875c0 11.734375 9.511718 21.246094 21.246093 21.246094 11.730469 0 21.246094-9.511719 21.246094-21.246094v-23.71875h23.714844c11.734375 0 21.246093-9.511719 21.246093-21.242187 0-11.734376-9.511718-21.246094-21.246093-21.246094zm0 0" fill="#fffcdc"/><path d="m246.757812 265.609375c-15.988281 0-28.945312-12.960937-28.945312-28.949219v-21.046875c0-4.363281 3.535156-7.902343 7.902344-7.902343h42.089844c4.367187 0 7.902343 3.539062 7.902343 7.902343v21.046875c0 15.988282-12.957031 28.949219-28.949219 28.949219zm0 0" fill="#454545"/><path d="m180.804688 236.660156c0-13.578125-13.824219-24.585937-30.878907-24.585937-17.050781 0-30.875 11.007812-30.875 24.585937 0 13.582032 13.824219 24.589844 30.875 24.589844 17.054688 0 30.878907-11.007812 30.878907-24.589844zm0 0" fill="#ff83b4"/><path d="m374.46875 236.660156c0-13.578125-13.824219-24.585937-30.875-24.585937-17.054688 0-30.878906 11.007812-30.878906 24.585937 0 13.582032 13.824218 24.589844 30.878906 24.589844 17.050781 0 30.875-11.007812 30.875-24.589844zm0 0" fill="#ff83b4"/><g fill="#454545"><path d="m329.851562 223.164062c-4.269531 0-7.726562-3.460937-7.726562-7.726562v-12.828125c0-4.265625 3.457031-7.726563 7.726562-7.726563 4.265626 0 7.726563 3.460938 7.726563 7.726563v12.828125c0 4.265625-3.460937 7.726562-7.726563 7.726562zm0 0"/><path d="m163.667969 223.164062c-4.269531 0-7.726563-3.460937-7.726563-7.726562v-12.828125c0-4.265625 3.457032-7.726563 7.726563-7.726563s7.726562 3.460938 7.726562 7.726563v12.828125c0 4.265625-3.457031 7.726562-7.726562 7.726562zm0 0"/></g></svg>