<svg id="Layer_1" enable-background="new 0 0 256 256" height="512" viewBox="0 0 256 256" width="512" xmlns="http://www.w3.org/2000/svg"><path d="m183.223 83.462h-131.18c-17.185-1.26-31.493 13.183-31.493 31.178 0 6.003 1.597 11.607 4.359 16.368 1.012 1.743.617 3.981-.885 5.264-6.706 5.728-11 14.514-11 24.369 0 10.248 4.644 19.337 11.814 25.036 1.088.865 1.668 2.254 1.524 3.69-.108 1.076-.165 2.168-.165 3.275 0 8.55 3.233 16.295 8.468 21.938 1.526 1.645 3.224 3.107 5.06 4.362 8.173 7.811 5.5 10.394 5.5 10.394 6.531-.473 13.709-3.615 19.693-7.05 3.335-1.183 6.396-2.993 9.078-5.284h109.228v-133.54z" fill="#4671c6"/><path d="m45.223 231.333c-.784 0-1.502-.46-1.826-1.184-.3-.672-.205-1.445.229-2.02.049-.314.143-2.524-5.17-7.634-1.908-1.319-3.677-2.853-5.259-4.558-5.805-6.257-9.001-14.532-9.001-23.298 0-1.153.059-2.322.175-3.475.076-.756-.215-1.476-.779-1.924-7.988-6.349-12.569-16.045-12.569-26.601 0-10.102 4.265-19.538 11.702-25.89.779-.665.975-1.843.454-2.739-3.028-5.218-4.628-11.226-4.628-17.372 0-9.571 3.899-18.684 10.697-25.001 6.318-5.872 14.44-8.769 22.868-8.176h131.108c1.104 0 2 .896 2 2v133.539c0 1.104-.896 2-2 2h-108.505c-2.731 2.227-5.742 3.943-8.962 5.107-5.292 3.023-13.074 6.691-20.389 7.221-.049.004-.097.005-.145.005zm-1.397-3.431c-.001.001-.001.001 0 0zm.004-.004c-.001.001-.002.001-.002.002 0 0 .001-.001.002-.002zm.003-.003c-.001.001-.002.002-.003.003.002-.002.003-.002.003-.003zm6.125-142.509c-6.637 0-12.962 2.512-17.988 7.183-5.986 5.563-9.42 13.608-9.42 22.071 0 5.442 1.414 10.755 4.088 15.364 1.498 2.582.945 5.857-1.316 7.789-6.545 5.59-10.299 13.918-10.299 22.848 0 9.33 4.031 17.884 11.059 23.47 1.633 1.298 2.482 3.337 2.27 5.455-.103 1.021-.155 2.055-.155 3.075 0 7.754 2.817 15.063 7.934 20.577 1.418 1.529 3.007 2.899 4.723 4.071.09.062.175.13.253.206 3.871 3.699 6.038 6.9 6.46 9.536 5.912-1.021 12.032-3.999 16.355-6.48.104-.06.214-.11.327-.15 3.05-1.082 5.892-2.737 8.448-4.92.362-.309.823-.479 1.299-.479h107.229v-129.54h-129.182c-.049 0-.098-.002-.146-.005-.649-.047-1.296-.071-1.939-.071z" fill="#3762cc"/><path d="m183.025 96.884c-.131 0-.257.017-.387.019v-5.733c0-33.512-27.414-60.678-61.23-60.678-33.816 0-61.23 27.167-61.23 60.678v5.733c-.13-.003-.256-.019-.387-.019-10.317 0-18.68 8.288-18.68 18.512s8.364 18.512 18.68 18.512c.678 0 1.345-.04 2.004-.11 6.318 26.844 30.6 46.847 59.613 46.847 29.012 0 53.294-20.003 59.613-46.847.659.07 1.327.11 2.004.11 10.317 0 18.68-8.288 18.68-18.512.001-10.224-8.363-18.512-18.68-18.512z" fill="#f9cfcf"/><g fill="#3762cc"><path d="m121.409 182.646c-28.968 0-53.872-19.134-61.149-46.743-11.647.256-21.149-9.042-21.148-20.506 0-10.772 8.416-19.631 19.067-20.451v-3.776c0-34.561 28.365-62.678 63.23-62.678s63.23 28.117 63.23 62.678v3.776c10.652.819 19.067 9.678 19.067 20.45 0 11.31-9.277 20.512-20.681 20.512-.154 0-.311-.002-.468-.006-7.277 27.61-32.18 46.744-61.148 46.744zm-59.612-50.848c.918 0 1.731.63 1.945 1.542 6.279 26.675 29.992 45.305 57.666 45.305s51.387-18.63 57.666-45.305c.231-.981 1.153-1.64 2.158-1.531.626.066 1.213.099 1.793.099 9.197 0 16.681-7.407 16.681-16.512 0-9.103-7.479-16.509-16.674-16.512-.168.011-.258.017-.349.019-.554.021-1.059-.193-1.443-.569-.385-.376-.602-.892-.602-1.43v-5.734c0-32.355-26.57-58.678-59.23-58.678s-59.23 26.323-59.23 58.678v5.733c0 .538-.217 1.054-.602 1.43s-.917.58-1.443.569c-.091-.002-.181-.008-.271-.014-.003 0-.006 0-.009 0-9.265 0-16.742 7.405-16.742 16.507 0 9.104 7.483 16.512 16.68 16.512.58 0 1.167-.032 1.794-.099.071-.006.143-.01.212-.01z"/><path d="m121.401 153.908c-1.864 0-3.491-.205-4.973-.625-2.47-.7-4.64-1.882-6.275-3.418-2.097-1.97-3.252-4.462-3.252-7.017 0-1.104.896-2 2-2s2 .896 2 2c0 1.459.688 2.878 1.991 4.102 1.171 1.1 2.771 1.959 4.628 2.485 1.122.318 2.392.473 3.881.473s2.759-.155 3.881-.473c1.857-.526 3.458-1.386 4.628-2.486 1.302-1.224 1.99-2.642 1.99-4.102 0-1.104.896-2 2-2s2 .896 2 2c0 2.554-1.154 5.046-3.252 7.017-1.635 1.537-3.805 2.719-6.275 3.419-1.481.421-3.108.625-4.972.625z"/><path d="m91.119 130.216c-4.076 0-7.392-3.315-7.392-7.391v-12.319c0-4.076 3.316-7.391 7.392-7.391 4.075 0 7.391 3.316 7.391 7.391v12.319c0 4.076-3.316 7.391-7.391 7.391z"/><path d="m151.683 130.216c-4.076 0-7.392-3.315-7.392-7.391v-12.319c0-4.076 3.316-7.391 7.392-7.391 4.075 0 7.391 3.316 7.391 7.391v12.319c0 4.076-3.316 7.391-7.391 7.391z"/><path d="m121.409 182.646c-28.968 0-53.872-19.134-61.149-46.743-11.647.256-21.149-9.042-21.148-20.506 0-10.772 8.416-19.631 19.067-20.451v-3.776c0-34.561 28.365-62.678 63.23-62.678s63.23 28.117 63.23 62.678v3.776c10.652.819 19.067 9.678 19.067 20.45 0 11.31-9.277 20.512-20.681 20.512-.154 0-.311-.002-.468-.006-7.277 27.61-32.18 46.744-61.148 46.744zm-59.612-50.848c.918 0 1.731.63 1.945 1.542 6.279 26.675 29.992 45.305 57.666 45.305s51.387-18.63 57.666-45.305c.231-.981 1.153-1.64 2.158-1.531.626.066 1.213.099 1.793.099 9.197 0 16.681-7.407 16.681-16.512 0-9.103-7.479-16.509-16.674-16.512-.168.011-.258.017-.349.019-.554.021-1.059-.193-1.443-.569-.385-.376-.602-.892-.602-1.43v-5.734c0-32.355-26.57-58.678-59.23-58.678s-59.23 26.323-59.23 58.678v5.733c0 .538-.217 1.054-.602 1.43s-.917.58-1.443.569c-.091-.002-.181-.008-.271-.014-.003 0-.006 0-.009 0-9.265 0-16.742 7.405-16.742 16.507 0 9.104 7.483 16.512 16.68 16.512.58 0 1.167-.032 1.794-.099.071-.006.143-.01.212-.01z"/></g><path d="m60.179 96.904 14.875-15.751c7.742-8.198 13.346-18.176 16.316-29.053 1.85-6.773-.027-14.018-4.932-19.041-5.558-5.692-13.984-7.503-21.39-4.596-8.926 3.503-15.794 10.848-18.691 19.988l-1.745 5.505c-2.294 7.239-2.672 14.95-1.095 22.378l4.839 22.802z" fill="#4671c6"/><path d="m159.912 187.038h-10.155c-.022-.001-.043-.004-.065-.004l-.004.004h-66.799c-17.647 0-31.953 14.306-31.953 31.953v16.029 4.551 8.429h140.928v-8.43-4.551-16.029c.001-17.646-14.305-31.952-31.952-31.952z" fill="#f9cfcf"/><path d="m121.409 180.646c-10.27 0-19.941-2.517-28.438-6.945v3.444 8.7c0 .449.064.89.157 1.325.003 0 .005 0 .008-.001.093.435.232.856.409 1.261.024.053.045.107.071.159.078.166.164.327.256.485.091.154.191.302.295.448.056.079.105.163.165.239l4.038 5.134c4.022 5.113 9.599 8.816 15.911 10.294.847.198 1.726.37 2.634.506 10.251 1.537 20.504-2.829 26.878-11.051l5.886-7.595c.081-.407.135-.82.135-1.239v-12.092c-8.489 4.418-18.148 6.928-28.405 6.928z" fill="#f9cfcf"/><path d="m177.742 192.503.019-.025s-.103-.001-.284-.004c-9.973 5.066-21.248 7.939-33.2 7.939h-45.737c-12.003 0-23.322-2.898-33.326-8.004-.082.022-.14.045-.163.068-1.226.827-2.384 1.745-3.481 2.729 3.694 6.059 5.824 13.177 5.824 20.792h.065v.501l-.066-.499v32h.065 4.065 103.806v-32h.065c0-7.62 2.132-14.741 5.83-20.802-1.092-.978-2.243-1.891-3.462-2.714-.007.006-.014.013-.02.019z" fill="#a4c9ff"/><path d="m191.865 250h-140.928c-1.104 0-2-.896-2-2v-29.01c0-18.721 15.231-33.952 33.953-33.952h8.082v-11.338c0-.699.365-1.348.963-1.71.598-.363 1.342-.387 1.961-.063 8.434 4.396 17.948 6.719 27.514 6.719 9.555 0 19.058-2.318 27.483-6.703.62-.323 1.364-.298 1.962.064.597.363.962 1.011.962 1.71v11.321h8.097c18.722 0 33.953 15.231 33.953 33.952v29.01c-.002 1.104-.897 2-2.002 2zm-138.928-4h136.929v-27.01c0-16.516-13.437-29.952-29.953-29.952h-10.154c-.022 0-.045 0-.069 0-.599 0-1.169-.268-1.549-.731-.38-.462-.536-1.071-.42-1.658.064-.324.096-.599.096-.84v-8.892c-8.239 3.756-17.302 5.729-26.407 5.729-9.116 0-18.189-1.978-26.438-5.744v8.942c0 .22.03.476.096.804.117.587-.036 1.196-.416 1.659s-.947.731-1.546.731h-10.217c-16.516 0-29.953 13.437-29.953 29.952v27.01z" fill="#3762cc"/><path d="m48.354 101.136c-.926 0-1.755-.646-1.955-1.585l-4.839-22.802c-1.646-7.752-1.25-15.843 1.145-23.397l1.745-5.504c3.094-9.761 10.335-17.505 19.867-21.247 8.172-3.208 17.417-1.221 23.552 5.061 5.377 5.507 7.458 13.541 5.43 20.965-3.046 11.153-8.852 21.493-16.791 29.899l-14.875 15.751c-.29.307-.669.514-1.083.592l-11.823 2.231c-.125.024-.25.036-.373.036zm11.825-4.232h.01zm12.111-67.816c-2.186 0-4.393.404-6.511 1.235-8.403 3.298-14.788 10.125-17.515 18.731l-1.745 5.504c-2.186 6.896-2.547 14.282-1.045 21.359l4.433 20.889 9.264-1.748 14.429-15.278c7.489-7.931 12.967-17.685 15.841-28.207 1.655-6.062-.043-12.621-4.434-17.117-3.418-3.5-8.019-5.368-12.717-5.368z" fill="#3762cc"/><circle cx="44.818" cy="83.659" fill="#e0ebfc" r="12.5"/><path d="m44.818 98.159c-7.995 0-14.5-6.505-14.5-14.5s6.505-14.5 14.5-14.5 14.5 6.505 14.5 14.5-6.505 14.5-14.5 14.5zm0-25c-5.79 0-10.5 4.71-10.5 10.5s4.71 10.5 10.5 10.5 10.5-4.71 10.5-10.5-4.71-10.5-10.5-10.5z" fill="#3762cc"/><path d="m175.328 250h-107.87c-1.104 0-2.064-.896-2.064-2v-32c0-6.986-1.913-13.816-5.531-19.751-.502-.823-.345-1.886.372-2.53 1.188-1.066 2.414-2.028 3.642-2.861.235-.173.51-.299.834-.383.474-.123.977-.069 1.413.154 10.122 5.166 21.029 7.785 32.417 7.785h45.737c11.34 0 22.205-2.598 32.295-7.722.286-.146.599-.218.927-.217l.29.003c.448.007.872.163 1.211.431 1.2.818 2.396 1.759 3.558 2.8.718.644.875 1.708.372 2.531-3.622 5.937-5.537 12.77-5.537 19.76 0 .175-.022.344-.064.505v31.495c-.002 1.104-.897 2-2.002 2zm-105.935-4h103.935v-30c0-.179.023-.353.067-.518.086-6.972 1.895-13.788 5.259-19.847-.396-.321-.794-.627-1.192-.918-10.395 5.107-21.554 7.696-33.185 7.696h-45.737c-11.636 0-22.798-2.59-33.194-7.7-.404.295-.808.605-1.209.931 3.363 6.062 5.17 12.881 5.253 19.855.044.16.067.328.067.5v.501c0 .174-.022.344-.064.505zm-2.937-52.099c-.001.001-.002.002-.003.003.001-.001.002-.002.003-.003zm.008-.009c-.002.003-.005.006-.008.008.003-.002.006-.005.008-.008z" fill="#3762cc"/><path d="m231.912 152.569c0-9.165-3.907-17.403-10.126-23.118-1.509-1.387-1.714-3.655-.526-5.325 3.807-5.354 6.088-12.152 6.088-19.557 0-16.172-10.864-29.475-24.791-31.089-2.003-2.508-3.038-5.706-2.758-9.045.004-.046.008-.091.011-.137 1.413-17.807-12.112-32.785-29.378-33.752-5.557-13.064-22.17-22.546-41.801-22.546-24.182 0-43.785 14.386-43.785 32.132s19.603 32.132 43.785 32.132c.287 0 .574-.002.86-.006 5.219-.074 10.226 2.389 13.109 6.739.982 1.481 2.093 2.867 3.306 4.155.001.002 5.711 8.204 20.275 11.927 3.651.933 6.061 4.313 5.91 8.079-.019.468-.028.938-.028 1.411 0 6.998 2.037 13.455 5.475 18.662 1.953 2.958 1.746 6.802-.486 9.556-4.367 5.387-6.989 12.274-6.989 19.782 0 7.963 2.951 15.225 7.802 20.744-6.417 5.724-10.461 14.051-10.461 23.327 0 7.78 2.849 14.89 7.553 20.36 3.639 4.232 8.39 7.477 13.802 9.284 6.359 3.435 13.989 6.576 20.93 7.05 0 0-2.841-2.583 5.845-10.394 1.952-1.255 3.756-2.717 5.378-4.362 5.563-5.643 9-13.388 9-21.938 0-8.074-3.062-15.432-8.088-20.978 6.199-5.716 10.088-13.945 10.088-23.093z" fill="#4671c6"/><path d="m209.69 235.333c-.046 0-.091-.001-.137-.004-7.737-.527-15.985-4.189-21.593-7.204-5.615-1.907-10.633-5.3-14.521-9.821-5.183-6.028-8.036-13.722-8.036-21.665 0-8.819 3.523-17.276 9.727-23.493-4.57-5.853-7.067-13.087-7.067-20.578 0-7.654 2.641-15.127 7.436-21.042 1.688-2.082 1.836-4.973.37-7.194-3.798-5.753-5.806-12.588-5.806-19.765 0-.5.011-.997.03-1.49.114-2.877-1.698-5.37-4.408-6.062-13.408-3.427-19.751-10.603-21.226-12.502l-.009.009c-1.312-1.391-2.495-2.878-3.518-4.42-2.47-3.727-6.729-5.913-11.415-5.845-.296.004-.591.006-.888.006-25.246 0-45.785-15.312-45.785-34.132s20.54-34.131 45.786-34.131c19.524 0 36.662 9.049 43.136 22.639 8.52.785 16.276 4.75 21.95 11.248 5.934 6.795 8.806 15.52 8.088 24.569l-.013.15c-.209 2.49.451 4.949 1.865 7.002 14.707 2.188 25.69 16.188 25.69 32.96 0 7.612-2.233 14.775-6.458 20.716-.613.863-.509 1.996.25 2.694 6.846 6.292 10.772 15.254 10.772 24.59 0 8.673-3.388 17.028-9.354 23.214 4.756 5.899 7.354 13.232 7.354 20.856 0 8.789-3.4 17.078-9.575 23.342-1.68 1.704-3.558 3.235-5.582 4.551-5.567 5.036-5.541 7.233-5.499 7.557.451.567.564 1.345.273 2.028-.313.742-1.041 1.217-1.837 1.217zm1.345-3.48c0 .001.002.002.003.002-.001 0-.002-.001-.003-.002zm-63.49-149.847c.096.133 5.611 7.68 19.131 11.136 4.557 1.164 7.605 5.315 7.414 10.096-.018.441-.026.885-.026 1.332 0 6.391 1.778 12.463 5.144 17.561 2.432 3.683 2.19 8.472-.601 11.917-4.22 5.205-6.543 11.782-6.543 18.522 0 7.167 2.594 14.064 7.304 19.424.726.825.649 2.082-.171 2.813-6.223 5.551-9.792 13.509-9.792 21.834 0 6.986 2.511 13.754 7.069 19.057 3.455 4.017 7.922 7.022 12.919 8.69.109.037.216.083.317.137 4.647 2.51 11.244 5.524 17.608 6.527.423-2.675 2.684-5.828 6.879-9.599.079-.072.165-.137.256-.195 1.83-1.176 3.523-2.55 5.034-4.083 5.433-5.51 8.425-12.803 8.425-20.534 0-7.274-2.688-14.248-7.57-19.636-.736-.813-.681-2.069.127-2.813 6.001-5.534 9.443-13.415 9.443-21.622 0-8.22-3.455-16.109-9.479-21.646-2.227-2.048-2.572-5.468-.803-7.957 3.688-5.185 5.718-11.718 5.718-18.398 0-15.07-9.896-27.582-23.021-29.102-.523-.061-1.003-.326-1.332-.738-2.373-2.97-3.505-6.685-3.188-10.461.001-.01.01-.118.01-.128.633-7.966-1.894-15.645-7.112-21.622-5.23-5.99-12.47-9.532-20.384-9.976-.76-.043-1.43-.513-1.729-1.214-5.342-12.557-21.776-21.328-39.962-21.328-23.041 0-41.785 13.517-41.785 30.132s18.745 30.132 41.785 30.132c.278 0 .555-.002.833-.006 6.022-.067 11.579 2.768 14.804 7.634.897 1.353 1.939 2.661 3.095 3.888.067.071.127.147.183.226z" fill="#3762cc"/><path d="m204.714 167.54 8.839 17.909c.874 1.771 2.563 2.998 4.518 3.282l19.764 2.872c4.921.715 6.886 6.763 3.325 10.234l-14.301 13.94c-1.414 1.378-2.059 3.364-1.726 5.311l3.376 19.684c.841 4.901-4.304 8.639-8.706 6.325l-17.677-9.294c-1.748-.919-3.836-.919-5.584 0l-17.677 9.294c-4.402 2.314-9.546-1.424-8.706-6.325l3.376-19.684c.334-1.946-.311-3.932-1.726-5.311l-14.301-13.94c-3.561-3.471-1.596-9.519 3.325-10.234l19.764-2.872c1.954-.284 3.644-1.511 4.518-3.282l8.839-17.909c2.2-4.459 8.559-4.459 10.76 0z" fill="#ffea92"/><path d="m176.064 249.795c-1.652 0-3.293-.518-4.695-1.536-2.481-1.803-3.701-4.801-3.183-7.825l3.376-19.684c.224-1.298-.207-2.622-1.15-3.541l-14.301-13.94c-2.196-2.141-2.972-5.283-2.024-8.201.948-2.917 3.423-5.004 6.458-5.445l19.765-2.872c1.303-.189 2.429-1.008 3.012-2.188l8.838-17.909c1.357-2.75 4.105-4.459 7.173-4.459s5.817 1.708 7.175 4.459h.001l8.839 17.909c.582 1.181 1.708 1.999 3.012 2.188l19.763 2.872c3.036.441 5.511 2.528 6.459 5.445.947 2.917.172 6.06-2.025 8.2l-14.302 13.94c-.942.919-1.372 2.243-1.149 3.542l3.377 19.683c.518 3.024-.702 6.022-3.185 7.825-2.48 1.803-5.71 2.036-8.424.608l-17.678-9.293c-1.166-.613-2.557-.613-3.723 0l-17.677 9.293c-1.182.623-2.46.929-3.732.929zm23.269-83.599c-1.557 0-2.897.833-3.586 2.229l-8.839 17.91c-1.166 2.361-3.418 3.997-6.023 4.376l-19.765 2.872c-1.541.224-2.748 1.242-3.229 2.723s-.103 3.014 1.012 4.101l14.302 13.94c1.886 1.838 2.746 4.486 2.3 7.082l-3.375 19.684c-.264 1.535.331 2.997 1.591 3.912s2.834 1.029 4.213.305l17.677-9.293c2.33-1.226 5.115-1.225 7.445 0l17.678 9.293c1.379.725 2.952.611 4.212-.304s1.855-2.378 1.592-3.913l-3.377-19.684c-.444-2.597.416-5.244 2.301-7.082l14.303-13.94c1.114-1.087 1.493-2.619 1.012-4.1s-1.688-2.499-3.229-2.723l-19.763-2.872c-2.606-.379-4.858-2.015-6.023-4.376l-8.84-17.909h.001c-.692-1.398-2.033-2.231-3.59-2.231z" fill="#3762cc"/><path d="m153.237 113.104c-.512 0-1.023-.195-1.414-.586-.781-.781-.781-2.047 0-2.828l7.07-7.071c.781-.781 2.047-.781 2.828 0s.781 2.047 0 2.828l-7.07 7.071c-.39.391-.902.586-1.414.586z" fill="#3762cc"/><path d="m89.565 113.104c-.512 0-1.023-.195-1.414-.586l-7.071-7.071c-.781-.781-.781-2.047 0-2.828.78-.781 2.047-.781 2.828 0l7.071 7.071c.781.781.781 2.047 0 2.828-.39.391-.902.586-1.414.586z" fill="#3762cc"/></svg>